<svg clip-rule="evenodd" fill-rule="evenodd" stroke-linecap="round" stroke-linejoin="round" viewBox="0 0 560 560" xmlns="http://www.w3.org/2000/svg"><path d="m0 0h560v560h-560z" fill="#2e3192"/><g fill="#4a61d8"><path d="m212 213c0-15.464 12.536-28 28-28s28 12.536 28 28-12.536 28-28 28-28-12.536-28-28z"/><path d="m395.52 368.37-76.13-136.37c-.63-1.137-1.796-1.873-3.093-1.952s-2.544.51-3.307 1.562l-50.82 69.56 25.83 36.33-68.5-53.62c-.846-.675-1.939-.959-3.007-.781-1.068.177-2.01.799-2.593 1.711l-53.29 83.37c-.742 1.17-.787 2.652-.116 3.865.671 1.212 1.95 1.962 3.336 1.955h228.36c1.346.006 2.594-.702 3.279-1.861.685-1.158.704-2.593.051-3.769z"/></g></svg>